<?xml version="1.0" encoding="UTF-8" standalone="no"?>
<!-- Created with Inkscape (http://www.inkscape.org/) -->

<svg
   version="1.1"
   id="svg1"
   width="615.51532"
   height="111.25733"
   viewBox="0 0 615.51532 111.25733"
   xmlns="http://www.w3.org/2000/svg"
   xmlns:svg="http://www.w3.org/2000/svg">
  <defs
     id="defs1">
    <clipPath
       clipPathUnits="userSpaceOnUse"
       id="clipPath2">
      <path
         d="M 0,807.874 H 595.276 V 0 H 0 Z"
         transform="translate(-172.88781,-486.22921)"
         id="path2" />
    </clipPath>
    <clipPath
       clipPathUnits="userSpaceOnUse"
       id="clipPath28">
      <path
         d="M 0,807.874 H 595.276 V 0 H 0 Z"
         transform="translate(-205.07121,-439.96681)"
         id="path28" />
    </clipPath>
    <clipPath
       clipPathUnits="userSpaceOnUse"
       id="clipPath30">
      <path
         d="M 0,807.874 H 595.276 V 0 H 0 Z"
         transform="translate(-207.70851,-448.34241)"
         id="path30" />
    </clipPath>
    <clipPath
       clipPathUnits="userSpaceOnUse"
       id="clipPath32">
      <path
         d="M 0,807.874 H 595.276 V 0 H 0 Z"
         transform="translate(0,-2.5000001e-5)"
         id="path32" />
    </clipPath>
    <clipPath
       clipPathUnits="userSpaceOnUse"
       id="clipPath34">
      <path
         d="M 0,807.874 H 595.276 V 0 H 0 Z"
         transform="translate(-228.87471,-448.34241)"
         id="path34" />
    </clipPath>
    <clipPath
       clipPathUnits="userSpaceOnUse"
       id="clipPath36">
      <path
         d="M 0,807.874 H 595.276 V 0 H 0 Z"
         transform="translate(-257.65951,-436.27621)"
         id="path36" />
    </clipPath>
    <clipPath
       clipPathUnits="userSpaceOnUse"
       id="clipPath38">
      <path
         d="M 0,807.874 H 595.276 V 0 H 0 Z"
         transform="translate(-267.4306,-440.42181)"
         id="path38" />
    </clipPath>
    <clipPath
       clipPathUnits="userSpaceOnUse"
       id="clipPath40">
      <path
         d="M 0,807.874 H 595.276 V 0 H 0 Z"
         transform="translate(-278.55261,-442.24401)"
         id="path40" />
    </clipPath>
    <clipPath
       clipPathUnits="userSpaceOnUse"
       id="clipPath42">
      <path
         d="M 0,807.874 H 595.276 V 0 H 0 Z"
         transform="translate(-298.68481,-448.34241)"
         id="path42" />
    </clipPath>
    <clipPath
       clipPathUnits="userSpaceOnUse"
       id="clipPath44">
      <path
         d="M 0,807.874 H 595.276 V 0 H 0 Z"
         transform="translate(-314.23931,-446.30321)"
         id="path44" />
    </clipPath>
    <clipPath
       clipPathUnits="userSpaceOnUse"
       id="clipPath46">
      <path
         d="M 0,807.874 H 595.276 V 0 H 0 Z"
         transform="translate(-323.77761,-448.34241)"
         id="path46" />
    </clipPath>
    <clipPath
       clipPathUnits="userSpaceOnUse"
       id="clipPath48">
      <path
         d="M 0,807.874 H 595.276 V 0 H 0 Z"
         transform="translate(-339.01391,-448.34241)"
         id="path48" />
    </clipPath>
    <clipPath
       clipPathUnits="userSpaceOnUse"
       id="clipPath50">
      <path
         d="M 0,807.874 H 595.276 V 0 H 0 Z"
         transform="translate(-353.09051,-436.27621)"
         id="path50" />
    </clipPath>
    <clipPath
       clipPathUnits="userSpaceOnUse"
       id="clipPath52">
      <path
         d="M 0,807.874 H 595.276 V 0 H 0 Z"
         transform="translate(-368.39011,-448.34241)"
         id="path52" />
    </clipPath>
    <clipPath
       clipPathUnits="userSpaceOnUse"
       id="clipPath54">
      <path
         d="M 0,807.874 H 595.276 V 0 H 0 Z"
         transform="translate(-389.43011,-436.27621)"
         id="path54" />
    </clipPath>
    <clipPath
       clipPathUnits="userSpaceOnUse"
       id="clipPath56">
      <path
         d="M 0,807.874 H 595.276 V 0 H 0 Z"
         transform="translate(-402.83081,-442.24401)"
         id="path56" />
    </clipPath>
    <clipPath
       clipPathUnits="userSpaceOnUse"
       id="clipPath58">
      <path
         d="M 0,807.874 H 595.276 V 0 H 0 Z"
         transform="translate(-417.32871,-448.34241)"
         id="path58" />
    </clipPath>
    <clipPath
       clipPathUnits="userSpaceOnUse"
       id="clipPath60">
      <path
         d="M 0,807.874 H 595.276 V 0 H 0 Z"
         transform="translate(-438.79211,-448.34241)"
         id="path60" />
    </clipPath>
    <clipPath
       clipPathUnits="userSpaceOnUse"
       id="clipPath62">
      <path
         d="M 0,807.874 H 595.276 V 0 H 0 Z"
         transform="translate(-452.86681,-436.27621)"
         id="path62" />
    </clipPath>
    <clipPath
       clipPathUnits="userSpaceOnUse"
       id="clipPath64">
      <path
         d="M 0,807.874 H 595.276 V 0 H 0 Z"
         transform="translate(-480.82781,-442.74911)"
         id="path64" />
    </clipPath>
    <clipPath
       clipPathUnits="userSpaceOnUse"
       id="clipPath66">
      <path
         d="M 0,807.874 H 595.276 V 0 H 0 Z"
         transform="translate(-490.38921,-436.27621)"
         id="path66" />
    </clipPath>
    <clipPath
       clipPathUnits="userSpaceOnUse"
       id="clipPath68">
      <path
         d="M 0,807.874 H 595.276 V 0 H 0 Z"
         transform="translate(0,-2.5000001e-5)"
         id="path68" />
    </clipPath>
    <clipPath
       clipPathUnits="userSpaceOnUse"
       id="clipPath70">
      <path
         d="M 0,807.874 H 595.276 V 0 H 0 Z"
         transform="translate(-511.49251,-448.34241)"
         id="path70" />
    </clipPath>
    <clipPath
       clipPathUnits="userSpaceOnUse"
       id="clipPath172">
      <path
         d="M 0,807.874 H 595.276 V 0 H 0 Z"
         transform="translate(0,-2.5000001e-5)"
         id="path172" />
    </clipPath>
    <clipPath
       clipPathUnits="userSpaceOnUse"
       id="clipPath174">
      <path
         d="M 0,807.874 H 595.276 V 0 H 0 Z"
         transform="translate(0,-2.5000001e-5)"
         id="path174" />
    </clipPath>
    <clipPath
       clipPathUnits="userSpaceOnUse"
       id="clipPath176">
      <path
         d="M 0,807.874 H 595.276 V 0 H 0 Z"
         transform="translate(-306.47631,-488.82831)"
         id="path176" />
    </clipPath>
    <clipPath
       clipPathUnits="userSpaceOnUse"
       id="clipPath178">
      <path
         d="M 0,807.874 H 595.276 V 0 H 0 Z"
         transform="translate(-375.77221,-467.14011)"
         id="path178" />
    </clipPath>
    <clipPath
       clipPathUnits="userSpaceOnUse"
       id="clipPath180">
      <path
         d="M 0,807.874 H 595.276 V 0 H 0 Z"
         transform="translate(0,-2.5000001e-5)"
         id="path180" />
    </clipPath>
    <clipPath
       clipPathUnits="userSpaceOnUse"
       id="clipPath182">
      <path
         d="M 0,807.874 H 595.276 V 0 H 0 Z"
         transform="translate(-486.77131,-456.50331)"
         id="path182" />
    </clipPath>
  </defs>
  <g
     id="layer-MC0"
     transform="translate(-83.969071,-386.55572)">
    <path
       id="path1"
       d="m 0,0 v 11.043 h -34.193 v 20.685 h -0.35 -12.489 V 16.242 c -9.123,4.176 -28.32,6.868 -49.288,6.868 h -13.591 V 12.067 h 13.591 c 21.083,0 40.367,-2.716 49.288,-6.922 v -6.139 c -9.125,4.172 -28.322,6.865 -49.288,6.865 h -13.591 V -5.172 h 13.591 c 21.077,0 40.363,-2.715 49.288,-6.917 v -6.143 c -9.126,4.173 -28.325,6.867 -49.288,6.867 h -13.591 v -11.046 h 13.591 c 21.078,0 40.365,-2.714 49.288,-6.917 V -51.715 H 0 v 11.047 h -34.193 v 6.193 H 0 v 11.041 h -34.193 v 6.196 H 0 V -6.195 H -34.193 V 0 Z"
       style="fill:#143871;fill-opacity:1;fill-rule:nonzero;stroke:none"
       transform="matrix(1.3333333,0,0,-1.3333333,230.51707,428.85973)"
       clip-path="url(#clipPath2)" />
    <path
       id="path27"
       d="m 0,0 c -0.317,-0.943 -1.33,-3.894 -6.269,-3.894 -4.093,0 -6.879,2.377 -6.879,6.135 0,3.356 2.13,6.336 7.049,6.336 0.843,0 2.954,-0.067 4.621,-1.382 0.759,-0.603 1.14,-1.312 1.435,-2.155 L -3.061,4.466 c -0.38,1.317 -1.626,2.024 -3.186,2.024 -3.757,0 -3.757,-3.306 -3.757,-4.08 0,-1.129 0.169,-2.258 0.801,-3.032 0.55,-0.676 1.563,-1.181 2.913,-1.181 2.026,0 2.956,1.231 3.335,2.548 z"
       style="fill:#231f20;fill-opacity:1;fill-rule:nonzero;stroke:none"
       transform="matrix(1.3333333,0,0,-1.3333333,273.42827,490.54293)"
       clip-path="url(#clipPath28)" />
    <path
       id="path29"
       d="M 0,0 H 3.039 V -4.752 H 9.011 V 0 H 12.05 V -12.066 H 9.011 v 5.274 H 3.039 v -5.274 H 0 Z"
       style="fill:#231f20;fill-opacity:1;fill-rule:nonzero;stroke:none"
       transform="matrix(1.3333333,0,0,-1.3333333,276.94467,479.37547)"
       clip-path="url(#clipPath30)" />
    <path
       id="path31"
       d="m 222.776,448.342 h 3.039 v -12.066 h -3.039 z"
       style="fill:#231f20;fill-opacity:1;fill-rule:nonzero;stroke:none"
       transform="matrix(1.3333333,0,0,-1.3333333,0,1077.1653)"
       clip-path="url(#clipPath32)" />
    <path
       id="path33"
       d="M 0,0 H 2.955 L 9.096,-8.055 H 9.138 V 0 h 2.828 V -12.066 H 8.906 L 2.87,-4.197 H 2.829 v -7.869 H 0 Z"
       style="fill:#231f20;fill-opacity:1;fill-rule:nonzero;stroke:none"
       transform="matrix(1.3333333,0,0,-1.3333333,305.16627,479.37547)"
       clip-path="url(#clipPath34)" />
    <path
       id="path35"
       d="M 0,0 -6.056,12.066 H -9.285 L -15.172,0 h 3.249 l 1.245,2.73 h 6.037 L -3.334,0 Z m -9.75,4.768 2.047,4.483 2.089,-4.483 z"
       style="fill:#231f20;fill-opacity:1;fill-rule:nonzero;stroke:none"
       transform="matrix(1.3333333,0,0,-1.3333333,343.546,495.46373)"
       clip-path="url(#clipPath36)" />
    <path
       id="path37"
       d="m 0,0 c 0.148,-0.624 0.55,-2.308 3.292,-2.308 2.131,0 2.976,0.893 2.976,1.669 0,1.01 -1.056,1.228 -3.841,1.768 -1.499,0.303 -4.833,0.96 -4.833,3.623 0,1.316 1.077,3.37 5.509,3.37 2.954,0 5.655,-0.923 5.781,-3.656 L 5.825,4.366 C 5.697,4.988 5.465,6.117 3.06,6.117 2.153,6.117 0.507,5.899 0.507,4.921 0.507,4.147 1.456,3.81 3.884,3.354 6.182,2.915 9.307,2.327 9.307,-0.639 c 0,-1.467 -1.16,-2.698 -2.469,-3.169 -1.351,-0.507 -2.87,-0.541 -3.567,-0.541 -1.624,0 -5.634,0.117 -6.226,4.132 z"
       style="fill:#231f20;fill-opacity:1;fill-rule:nonzero;stroke:none"
       transform="matrix(1.3333333,0,0,-1.3333333,356.57413,489.93627)"
       clip-path="url(#clipPath38)" />
    <path
       id="path39"
       d="m 0,0 c 0,-2.784 1.667,-6.171 7.344,-6.171 5.296,0 7.281,3.068 7.281,6.219 C 14.625,3.571 12.239,6.3 7.301,6.3 2.616,6.3 0,3.858 0,0 m 3.145,0.065 c 0,1.771 0.717,4.148 4.179,4.148 3.713,0 4.156,-2.748 4.156,-4.115 0,-3.485 -2.554,-4.178 -4.156,-4.178 -1.838,0 -2.915,0.808 -3.42,1.518 C 3.546,-2.076 3.145,-1.3 3.145,0.065"
       style="fill:#231f20;fill-opacity:1;fill-rule:nonzero;stroke:none"
       transform="matrix(1.3333333,0,0,-1.3333333,371.40347,487.50667)"
       clip-path="url(#clipPath40)" />
    <path
       id="path41"
       d="m 0,0 v -6.521 c 0,-1.432 0,-2.024 0.381,-2.596 0.569,-0.858 1.751,-1.062 2.679,-1.062 2.912,0 2.912,1.467 2.912,3.522 V 0 h 3.04 v -6.336 c 0,-2.157 -0.106,-3.353 -0.845,-4.263 -1.161,-1.434 -3.333,-1.671 -5.023,-1.671 -6.182,0 -6.182,3.051 -6.182,5.832 V 0 Z"
       style="fill:#231f20;fill-opacity:1;fill-rule:nonzero;stroke:none"
       transform="matrix(1.3333333,0,0,-1.3333333,398.2464,479.37547)"
       clip-path="url(#clipPath42)" />
    <path
       id="path43"
       d="M 0,0 H -4.475 V 2.039 H 7.511 V 0 H 3.038 V -10.027 H 0 Z"
       style="fill:#231f20;fill-opacity:1;fill-rule:nonzero;stroke:none"
       transform="matrix(1.3333333,0,0,-1.3333333,418.98573,482.0944)"
       clip-path="url(#clipPath44)" />
    <path
       id="path45"
       d="M 0,0 H 3.038 V -4.752 H 9.01 V 0 h 3.039 V -12.066 H 9.01 v 5.274 H 3.038 v -5.274 H 0 Z"
       style="fill:#231f20;fill-opacity:1;fill-rule:nonzero;stroke:none"
       transform="matrix(1.3333333,0,0,-1.3333333,431.70347,479.37547)"
       clip-path="url(#clipPath46)" />
    <path
       id="path47"
       d="M 0,0 H 11.206 V -2.039 H 3.04 v -2.679 h 7.597 V -6.757 H 3.04 v -3.27 h 8.439 v -2.039 H 0 Z"
       style="fill:#231f20;fill-opacity:1;fill-rule:nonzero;stroke:none"
       transform="matrix(1.3333333,0,0,-1.3333333,452.01853,479.37547)"
       clip-path="url(#clipPath48)" />
    <path
       id="path49"
       d="M 0,0 H 3.038 V 5.038 H 3.65 c 2.047,0 2.236,-0.234 4.075,-2.406 L 9.918,0 h 3.651 L 11.731,2.36 C 10.214,4.297 9.622,4.735 8.356,5.309 v 0.033 c 0.59,0.05 1.161,0.186 1.689,0.372 1.477,0.488 2.3,1.652 2.3,2.967 0,1.177 -0.719,2.558 -2.469,3.082 -0.464,0.119 -1.204,0.303 -3.461,0.303 H 0 Z m 3.038,10.027 h 2.385 c 2.046,0 2.427,0 2.997,-0.271 C 8.99,9.489 9.2,9.015 9.2,8.527 9.2,8.174 9.094,7.398 8.04,7.112 7.511,6.961 6.224,6.961 5.297,6.961 H 3.038 Z"
       style="fill:#231f20;fill-opacity:1;fill-rule:nonzero;stroke:none"
       transform="matrix(1.3333333,0,0,-1.3333333,470.78733,495.46373)"
       clip-path="url(#clipPath50)" />
    <path
       id="path51"
       d="M 0,0 H 2.953 L 9.096,-8.055 H 9.137 V 0 h 2.829 V -12.066 H 8.907 L 2.87,-4.197 H 2.827 v -7.869 H 0 Z"
       style="fill:#231f20;fill-opacity:1;fill-rule:nonzero;stroke:none"
       transform="matrix(1.3333333,0,0,-1.3333333,491.1868,479.37547)"
       clip-path="url(#clipPath52)" />
    <path
       id="path53"
       d="m 0,0 h 3.039 v 4.551 h 2.005 c 1.35,0 2.975,0.017 4.052,0.42 0.949,0.354 2.469,1.264 2.469,3.389 0,2.038 -1.417,2.967 -2.385,3.337 -0.802,0.3 -1.626,0.369 -4.285,0.369 H 0 Z m 4.516,10.027 c 1.814,0 2.532,0 3.207,-0.47 C 8.25,9.219 8.421,8.762 8.421,8.326 8.421,6.59 6.288,6.59 4.727,6.59 H 3.039 v 3.437 z"
       style="fill:#231f20;fill-opacity:1;fill-rule:nonzero;stroke:none"
       transform="matrix(1.3333333,0,0,-1.3333333,519.24013,495.46373)"
       clip-path="url(#clipPath54)" />
    <path
       id="path55"
       d="m 0,0 c 0,-2.784 1.667,-6.171 7.344,-6.171 5.296,0 7.28,3.068 7.28,6.219 C 14.624,3.571 12.239,6.3 7.302,6.3 2.617,6.3 0,3.858 0,0 m 3.145,0.065 c 0,1.771 0.716,4.148 4.177,4.148 3.716,0 4.157,-2.748 4.157,-4.115 0,-3.485 -2.553,-4.178 -4.157,-4.178 -1.836,0 -2.912,0.808 -3.419,1.518 C 3.544,-2.076 3.145,-1.3 3.145,0.065"
       style="fill:#231f20;fill-opacity:1;fill-rule:nonzero;stroke:none"
       transform="matrix(1.3333333,0,0,-1.3333333,537.10773,487.50667)"
       clip-path="url(#clipPath56)" />
    <path
       id="path57"
       d="M 0,0 H 3.123 L 5.381,-8.291 H 5.423 L 8.167,0 h 3.628 l 2.641,-8.427 h 0.041 L 16.755,0 h 3.082 L 16.166,-12.066 H 12.915 L 9.941,-3.051 H 9.897 L 6.923,-12.066 H 3.608 Z"
       style="fill:#231f20;fill-opacity:1;fill-rule:nonzero;stroke:none"
       transform="matrix(1.3333333,0,0,-1.3333333,556.43827,479.37547)"
       clip-path="url(#clipPath58)" />
    <path
       id="path59"
       d="M 0,0 H 11.204 V -2.039 H 3.038 v -2.679 h 7.598 V -6.757 H 3.038 v -3.27 h 8.441 v -2.039 H 0 Z"
       style="fill:#231f20;fill-opacity:1;fill-rule:nonzero;stroke:none"
       transform="matrix(1.3333333,0,0,-1.3333333,585.05613,479.37547)"
       clip-path="url(#clipPath60)" />
    <path
       id="path61"
       d="m 0,0 h 3.04 v 5.038 h 0.611 c 2.047,0 2.238,-0.234 4.072,-2.406 L 9.918,0 h 3.651 L 11.734,2.36 C 10.215,4.297 9.625,4.735 8.357,5.309 v 0.033 c 0.592,0.05 1.161,0.186 1.689,0.372 1.476,0.488 2.3,1.652 2.3,2.967 0,1.177 -0.719,2.558 -2.47,3.082 -0.463,0.119 -1.203,0.303 -3.461,0.303 H 0 Z m 3.04,10.027 h 2.383 c 2.047,0 2.427,0 2.998,-0.271 C 8.99,9.489 9.201,9.015 9.201,8.527 9.201,8.174 9.096,7.398 8.041,7.112 7.514,6.961 6.224,6.961 5.297,6.961 H 3.04 Z"
       style="fill:#231f20;fill-opacity:1;fill-rule:nonzero;stroke:none"
       transform="matrix(1.3333333,0,0,-1.3333333,603.8224,495.46373)"
       clip-path="url(#clipPath62)" />
    <path
       id="path63"
       d="m 0,0 h 6.564 v -4.806 c -0.886,-0.689 -3.397,-1.87 -6.458,-1.87 -5.443,0 -7.66,3.101 -7.66,6.269 0,2.949 2.026,6.202 7.492,6.202 2.448,0 5.613,-0.57 6.437,-3.537 L 3.336,1.803 C 2.745,3.472 0.866,3.708 -0.042,3.708 -1.329,3.708 -2.7,3.385 -3.587,2.358 -4.241,1.582 -4.41,0.622 -4.41,-0.305 c 0,-1.786 0.782,-4.28 4.326,-4.28 1.774,0 3.188,0.791 3.566,1.027 v 1.521 H 0 Z"
       style="fill:#231f20;fill-opacity:1;fill-rule:nonzero;stroke:none"
       transform="matrix(1.3333333,0,0,-1.3333333,641.10373,486.8332)"
       clip-path="url(#clipPath64)" />
    <path
       id="path65"
       d="m 0,0 h 3.039 v 5.038 h 0.612 c 2.047,0 2.235,-0.234 4.073,-2.406 L 9.918,0 H 13.57 L 11.734,2.36 C 10.214,4.297 9.623,4.735 8.357,5.309 v 0.033 c 0.592,0.05 1.16,0.186 1.688,0.372 1.478,0.488 2.299,1.652 2.299,2.967 0,1.177 -0.717,2.558 -2.467,3.082 -0.464,0.119 -1.205,0.303 -3.46,0.303 H 0 Z m 3.039,10.027 h 2.384 c 2.047,0 2.427,0 2.998,-0.271 C 8.989,9.489 9.202,9.015 9.202,8.527 9.202,8.174 9.096,7.398 8.041,7.112 7.512,6.961 6.225,6.961 5.298,6.961 H 3.039 Z"
       style="fill:#231f20;fill-opacity:1;fill-rule:nonzero;stroke:none"
       transform="matrix(1.3333333,0,0,-1.3333333,653.85227,495.46373)"
       clip-path="url(#clipPath66)" />
    <path
       id="path67"
       d="m 505.457,448.342 h 3.038 v -12.066 h -3.038 z"
       style="fill:#231f20;fill-opacity:1;fill-rule:nonzero;stroke:none"
       transform="matrix(1.3333333,0,0,-1.3333333,0,1077.1653)"
       clip-path="url(#clipPath68)" />
    <path
       id="path69"
       d="m 0,0 v -12.066 h 5.719 c 0.971,0 3.482,0 5.022,1.35 1.92,1.666 1.92,3.842 1.92,4.564 0,2.362 -0.758,3.472 -1.266,4.113 C 9.77,0 7.281,0 5.57,0 Z m 4.412,-2.039 c 2.953,0 5.105,0 5.105,-4.011 0,-3.875 -1.858,-3.977 -4.199,-3.977 H 3.039 v 7.988 z"
       style="fill:#231f20;fill-opacity:1;fill-rule:nonzero;stroke:none"
       transform="matrix(1.3333333,0,0,-1.3333333,681.99,479.37547)"
       clip-path="url(#clipPath70)" />
    <path
       id="path171"
       d="m 221.278,484.587 h 12.393 v -8.504 h -12.393 z m -19.45,-15.144 -0.14,0.749 h 12.114 v -9.639 l -0.221,-5.555 h 7.918 l -0.221,5.555 v 9.639 h 12.393 l -0.086,-0.833 h 7.644 l -0.195,5.752 v 10.615 l 0.195,4.805 -5.976,-0.193 h -13.975 v 2.972 l 0.221,5.863 h -7.918 l 0.221,-5.863 v -2.972 H 200.16 l -5.778,0.193 0.167,-4.805 v -10.615 l -0.167,-5.668 z m -0.14,15.144 h 12.114 v -8.504 h -12.114 z"
       style="fill:#231f20;fill-opacity:1;fill-rule:nonzero;stroke:none"
       transform="matrix(1.3333333,0,0,-1.3333333,0,1077.1653)"
       clip-path="url(#clipPath172)" />
    <path
       id="path173"
       d="m 258.248,492.129 h 33.231 v -30.704 h -33.231 z m -6.475,0.193 v -31.147 l -0.165,-5.388 h 6.64 v 0.638 h 33.231 v -0.969 h 6.78 l -0.193,5.388 v 31.478 l 0.193,5.03 -5.446,-0.167 H 257.11 l -5.502,0.167 z m 7.394,-28.229 4.806,0.14 h 21.477 l 5.114,-0.14 v 4.973 l -4.112,-0.11 c 0.905,0.85 1.759,1.628 2.555,2.334 l -1.335,1.138 -1.916,1.557 c -0.315,0.256 -0.75,0.666 -1.304,1.221 l 4.111,-0.195 v 5.115 l -3.53,-0.085 h -6.834 v 4.558 h 7.168 l 4.779,-0.226 v 5.198 l -5.113,-0.109 h -20.421 l -4.724,0.109 v -5.112 l 4.724,0.14 h 7.056 v -4.558 h -5.639 l -4.724,0.085 v -5.059 l 4.724,0.139 h 5.639 v -6.25 h -7.64 l -4.861,0.11 z m 19.032,4.863 v 6.25 h 3.778 c -1.056,-0.889 -2.082,-1.594 -3.085,-2.113 1.89,-1.388 3.057,-2.328 3.5,-2.818 0.446,-0.493 0.835,-0.931 1.17,-1.319 z"
       style="fill:#231f20;fill-opacity:1;fill-rule:nonzero;stroke:none"
       transform="matrix(1.3333333,0,0,-1.3333333,0,1077.1653)"
       clip-path="url(#clipPath174)" />
    <path
       id="path175"
       d="M 0,0 5.447,0.166 H 21.589 L 21.534,-2.917 H 7.696 l -5.112,0.168 0.194,-4.364 v -19.78 l -0.194,-6.029 h 7.029 l -0.11,6.029 v 18.916 h 7.695 c -0.742,-0.537 -1.583,-1.026 -2.526,-1.47 1.017,-0.832 1.72,-1.482 2.11,-1.942 0.387,-0.467 0.796,-0.956 1.224,-1.474 h -2.002 l -4.252,0.109 v -4.997 l 4.252,0.108 h 5.836 v -2.473 h -4.307 l -5.781,0.109 v -5.027 l 5.781,0.138 h 4.307 v -2.165 l -0.113,-5.528 h 7.059 l -0.141,5.528 v 2.165 h 3.836 l 5.336,-0.138 v 5.027 l -5.336,-0.109 h -3.836 v 2.473 h 4.921 l 4.194,-0.108 v 4.997 l -4.194,-0.109 h -0.862 c 0.407,0.477 0.862,1.1 1.361,1.862 0.499,0.756 0.907,1.424 1.222,2.002 -0.833,0.219 -1.648,0.564 -2.444,1.022 h 7.028 V -25.84 c 0,-0.758 -0.138,-1.279 -0.417,-1.555 -0.278,-0.278 -0.934,-0.415 -1.972,-0.415 -1.055,-0.017 -2.236,0.084 -3.53,0.303 l 0.668,-1.444 c 0.556,-1.222 0.915,-2.242 1.082,-3.07 0.169,-0.823 0.298,-1.487 0.391,-1.985 5.147,0.072 8.196,0.603 9.139,1.583 0.946,0.981 1.416,2.067 1.416,3.248 v 22.062 l 0.199,4.364 -5.585,-0.168 H 28.786 l 0.055,3.083 H 43.263 L 49.513,0 V 5.669 L 43.263,5.5 H 28.897 l 0.139,2.699 0.14,1.972 c -1.689,-0.038 -4.215,0.09 -7.587,0.388 L 21.727,8.448 21.589,5.5 H 5.447 L 0,5.669 Z m 28.897,-7.977 c -0.462,-1.126 -0.898,-1.985 -1.307,-2.567 -0.407,-0.584 -0.85,-1.163 -1.333,-1.74 0.608,-0.127 1.183,-0.321 1.722,-0.579 h -6.055 c 0.555,0.498 1.285,0.97 2.194,1.417 l -0.943,0.974 -1.448,1.473 c -0.26,0.219 -0.639,0.564 -1.139,1.022 z"
       style="fill:#231f20;fill-opacity:1;fill-rule:nonzero;stroke:none"
       transform="matrix(1.3333333,0,0,-1.3333333,408.63507,425.39427)"
       clip-path="url(#clipPath176)" />
    <path
       id="path177"
       d="m 0,0 c 2.36,3.006 3.813,5.771 4.361,8.291 0.547,2.518 0.875,5.346 0.988,8.475 l 0.083,2.5 H -5.736 l -6.115,-0.194 v 6.001 L -5.6,24.908 h 16.644 c -0.926,1.76 -2.352,3.499 -4.28,5.222 1.947,0.63 3.908,1.623 5.892,2.972 0.833,-0.832 1.804,-1.963 2.92,-3.388 1.109,-1.426 1.978,-2.612 2.608,-3.554 -0.833,-0.411 -1.584,-0.827 -2.251,-1.252 h 15.506 l 6.362,0.165 v -6.001 l -6.973,0.194 h -18.23 c -0.131,-1.612 -0.192,-2.594 -0.192,-2.942 l -0.14,-2.588 h 14.7 l 4.695,0.113 -0.222,-4.974 C 31.326,4.226 31.232,0.959 31.148,-0.922 31.064,-2.8 30.889,-4.398 30.634,-5.715 30.374,-7.027 29.75,-8.18 28.77,-9.172 c -0.981,-0.988 -2.497,-1.783 -4.541,-2.388 -2.05,-0.601 -4.84,-1.03 -8.377,-1.29 -0.114,0.553 -0.274,1.292 -0.487,2.205 -0.213,0.92 -0.578,1.768 -1.097,2.545 l -1.083,1.668 c 1.499,-0.036 3.136,-0.036 4.914,0.01 1.779,0.05 3.061,0.371 3.851,0.974 0.788,0.602 1.319,1.222 1.596,1.862 0.278,0.639 0.447,1.678 0.502,3.125 l 0.249,5.724 V 8.456 H 11.543 C 11.338,7.551 11.12,6.628 10.877,5.693 10.635,4.758 10.021,3.08 9.03,0.664 8.038,-1.749 5.95,-4.127 2.764,-6.449 c -3.186,-2.323 -6.705,-4.301 -10.559,-5.929 -1.704,2.295 -2.816,3.689 -3.333,4.167 l -1.583,1.446 C -6.601,-5.267 -2.364,-3.016 0,0"
       style="fill:#231f20;fill-opacity:1;fill-rule:nonzero;stroke:none"
       transform="matrix(1.3333333,0,0,-1.3333333,501.0296,454.31187)"
       clip-path="url(#clipPath178)" />
    <path
       id="path179"
       d="m 446.516,477.322 h 11.919 v -5.361 h -11.919 z m 0,10.471 h 11.919 v -5.442 h -11.919 z m -17.088,-10.471 h 10.447 v -5.361 h -10.447 z m -6.725,11.78 v -18.171 l -0.167,-4.863 h 6.892 v 0.723 h 10.446 v -6.833 c 0,-1.076 0.128,-1.938 0.39,-2.585 0.259,-0.646 0.905,-1.235 1.944,-1.766 1.037,-0.526 2.615,-0.795 4.737,-0.804 2.119,-0.008 4.866,-0.04 8.241,-0.098 3.498,-0.092 6.096,-0.101 7.794,-0.027 1.692,0.073 2.963,0.253 3.806,0.54 0.839,0.291 1.622,0.776 2.345,1.46 0.721,0.687 1.639,2.652 2.751,5.891 -1.925,0.535 -4.131,1.442 -6.611,2.721 l -0.333,-1.859 c -0.188,-1.205 -0.628,-2.042 -1.323,-2.518 -0.693,-0.469 -1.596,-0.756 -2.705,-0.86 -1.112,-0.099 -2.957,-0.124 -5.531,-0.068 l -6,0.137 c -1.301,0.039 -2.102,0.225 -2.405,0.558 -0.306,0.332 -0.458,0.704 -0.458,1.11 v 5.001 h 11.919 V 465.9 h 6.888 l -0.165,4.67 v 18.532 l 0.165,4.138 -4.443,-0.165 h -14.364 v 2.668 l 0.14,3.75 h -6.92 l 0.138,-3.75 v -2.668 h -12.171 l -5.167,0.165 z m 6.725,-1.309 h 10.447 v -5.442 h -10.447 z"
       style="fill:#231f20;fill-opacity:1;fill-rule:nonzero;stroke:none"
       transform="matrix(1.3333333,0,0,-1.3333333,0,1077.1653)"
       clip-path="url(#clipPath180)" />
    <path
       id="path181"
       d="m 0,0 -0.112,6.197 v 5.751 C 1.315,10.764 2.254,9.917 2.71,9.407 3.162,8.896 3.612,8.381 4.057,7.864 c 1.98,2.314 3.217,3.863 3.707,4.64 0.492,0.776 0.913,1.453 1.267,2.029 l 0.723,-1.278 c 0.129,-0.244 0.361,-0.879 0.693,-1.917 l 1.277,1.027 c 0.76,0.609 2.169,1.397 4.225,2.361 -1.39,2.277 -2.76,4.427 -4.112,6.449 l 0.554,1.611 c 0.204,0.573 0.556,1.832 1.058,3.777 1.759,-1.853 2.851,-3.027 3.277,-3.528 0.424,-0.503 1.185,-1.651 2.278,-3.446 l -0.86,-1.998 c -0.594,-1.41 -1.4,-2.805 -2.418,-4.183 -1.019,-1.38 -2.464,-2.832 -4.333,-4.347 1.849,-0.891 3.065,-1.535 3.64,-1.934 0.573,-0.396 1.212,-0.856 1.917,-1.373 1.02,0.943 1.844,1.803 2.472,2.584 0.627,0.775 1.889,2.573 3.779,5.389 l 1.476,-2.585 c 0.126,-0.241 0.477,-1.028 1.052,-2.36 1.869,1.647 3.591,2.99 5.168,4.029 l -0.944,1.554 c -0.093,0.112 -1.454,2.093 -4.084,5.946 l 0.78,2.976 c 0.274,1.091 0.589,2.565 0.943,4.415 l 0.499,2.861 c 0.054,0.313 0.146,0.789 0.277,1.42 -2.223,0.127 -4.492,0.389 -6.808,0.778 v -1.502 c 0,-0.777 -0.193,-2.344 -0.581,-4.696 -0.965,1.15 -1.837,2.167 -2.611,3.057 L 17.17,28.733 c -0.685,-0.54 -1.881,-1.139 -3.581,-1.807 l 0.581,2.499 c 0,0.036 0.076,0.433 0.222,1.18 0.147,0.75 0.279,1.386 0.388,1.906 -2.647,0.202 -4.89,0.546 -6.722,1.026 L 7.972,31.619 C 7.939,30.805 7.858,30.04 7.739,29.328 7.617,28.613 7.461,27.849 7.28,27.035 6.187,28.33 5.224,29.537 4.389,30.647 2.964,29.628 1.988,29.007 1.459,28.786 0.929,28.565 0.407,28.351 -0.112,28.148 v 6.501 H 31.007 V 6.836 c 0,-0.535 -0.123,-0.962 -0.372,-1.29 -0.254,-0.325 -1.062,-0.468 -2.432,-0.43 -1.148,0.02 -2.372,0.11 -3.67,0.277 l 0.808,-1.502 c 0.775,-1.461 1.218,-2.568 1.333,-3.32 0.108,-0.745 0.194,-1.345 0.249,-1.791 3.52,0.186 6.062,0.515 7.628,0.986 1.564,0.473 2.482,1.136 2.751,1.99 0.268,0.85 0.401,1.765 0.401,2.748 v 29.948 l 0.139,5.755 -6.584,-0.166 h -31.73 l -6.75,0.166 0.165,-5.755 V 6.197 L -7.222,0 Z m -0.112,27.175 1.39,-1.639 C 1.667,25.072 2.928,23.422 5.057,20.589 4.353,18.625 3.612,17.117 2.832,16.062 2.056,15.006 1.073,13.883 -0.112,12.697 Z"
       style="fill:#231f20;fill-opacity:1;fill-rule:nonzero;stroke:none"
       transform="matrix(1.3333333,0,0,-1.3333333,649.0284,468.49427)"
       clip-path="url(#clipPath182)" />
  </g>
</svg>
